<?xml version="1.0" encoding="UTF-8"?>
<svg width="21px" height="13px" viewBox="0 0 21 13" version="1.1" xmlns="http://www.w3.org/2000/svg" xmlns:xlink="http://www.w3.org/1999/xlink">
    <title>BE7B5304-84D3-486E-B942-217979C2BF90</title>
    <g id="Page-1" stroke="none" stroke-width="1" fill="none" fill-rule="evenodd">
        <g id="Moneyboys-website" transform="translate(-1008.000000, -3316.000000)" fill="#FFFFFF" fill-rule="nonzero">
            <g id="Group-19" transform="translate(825.000000, 3088.500000)">
                <g id="Group-18" transform="translate(1.500000, 213.000000)">
                    <path d="M195.93412,18.0551533 L197.104387,19.430153 C197.238348,19.5845877 197.357144,19.7116235 197.405168,19.7838616 C197.755161,20.1316809 197.951402,20.6017589 197.951124,21.0916025 C197.918265,21.6695068 197.541657,22.0630752 197.192852,22.4840425 L196.373918,23.4455565 L195.946758,23.9437411 C195.931441,23.9609034 195.921558,23.982135 195.918323,24.0048073 C195.915113,24.0274544 195.918702,24.0505311 195.928661,24.0712066 C195.938594,24.0918822 195.954467,24.1092213 195.974309,24.1211009 C195.99415,24.1329552 196.017075,24.1388445 196.040278,24.1380357 L200.309349,24.1380357 C200.961463,24.1380357 201.782924,24.6860388 201.7349,25.5180147 C201.733561,25.8961396 201.580541,26.2584419 201.309232,26.5258086 C201.037922,26.7932005 200.670312,26.9439955 200.286601,26.9453098 L193.601171,26.9453098 C193.161373,26.9453098 191.978469,26.9926513 191.647357,25.9838211 C191.576939,25.7729962 191.567308,25.5470818 191.619553,25.3311765 C191.715803,25.0119693 191.868064,24.71182 192.069461,24.4444028 C192.405629,23.9462182 192.769599,23.4480335 193.128514,22.9647869 C193.59106,22.3320848 194.066244,21.7193253 194.533845,21.0741623 C194.550451,21.0531582 194.559475,21.0273011 194.559475,21.0006857 C194.559475,20.9740704 194.550451,20.9482133 194.533845,20.9272092 L192.835316,18.9344454 C192.824245,18.920013 192.809914,18.908285 192.793459,18.9002221 C192.77703,18.8921591 192.758907,18.8879633 192.740532,18.8879633 C192.722157,18.8879633 192.704034,18.8921591 192.687605,18.9002221 C192.67115,18.908285 192.656819,18.920013 192.645748,18.9344454 C192.190785,19.5397486 190.199057,22.2200122 189.774425,22.763036 C189.349793,23.3060598 188.303378,23.3359357 187.724563,22.763036 L185.068084,20.1350931 C185.051124,20.11831 185.029463,20.1068601 185.005906,20.1022347 C184.982324,20.0975839 184.957882,20.0999598 184.93569,20.1090338 C184.913473,20.1181078 184.894491,20.1334755 184.88117,20.1531905 C184.86785,20.1729056 184.860773,20.1960834 184.860823,20.2197668 L184.860823,25.2739017 C184.867066,25.6325643 184.759316,25.9841497 184.552611,26.2794207 C184.345931,26.5746665 184.050686,26.7988117 183.70825,26.9204132 C183.489438,26.9954569 183.255612,27.0178765 183.02621,26.9857763 C182.796833,26.9536761 182.578577,26.8679914 182.389615,26.7358751 C182.200654,26.6037842 182.046472,26.4290531 181.939935,26.2263164 C181.833423,26.0235545 181.777614,25.7986511 181.777184,25.5703102 L181.777184,16.4833568 C181.792426,16.1558845 181.91198,15.8414797 182.118887,15.5848046 C182.325794,15.3281296 182.609514,15.1422519 182.929758,15.0535593 C183.204454,14.9814426 183.493609,14.9821655 183.767926,15.0556572 C184.042244,15.1291338 184.291968,15.272801 184.491798,15.4720496 L188.576356,19.502391 C188.588589,19.5146245 188.603375,19.5240776 188.619729,19.5300427 C188.636057,19.5360078 188.653548,19.5383837 188.670912,19.536943 C188.688276,19.5355275 188.70511,19.530346 188.720225,19.5218028 C188.73534,19.5132343 188.748332,19.5015064 188.758341,19.4874278 L191.659995,15.5293244 C191.794082,15.3686466 191.962191,15.2388052 192.152568,15.1488741 C192.342919,15.0589431 192.550939,15.0111214 192.762016,15.0087202 L200.309349,15.0087202 C200.515902,15.0090741 200.720004,15.0528516 200.90798,15.1371715 C201.09598,15.2215166 201.263533,15.3444324 201.399441,15.4977045 C201.535348,15.6509765 201.636477,15.8310913 201.696077,16.0259925 C201.755677,16.2208936 201.772359,16.426082 201.745011,16.6278329 C201.69183,16.9778259 201.51164,17.2969573 201.237878,17.5259806 C200.964092,17.755004 200.615337,17.8784254 200.25627,17.8733197 L196.030168,17.8733197 C196.008937,17.8738252 195.988236,17.879942 195.970189,17.8910127 C195.952167,17.9020835 195.937482,17.9177292 195.927675,17.9362816 C195.917868,17.9548592 195.913293,17.9756864 195.914431,17.9965895 C195.915568,18.0174925 195.922367,18.0377131 195.93412,18.0551533 Z" id="Path"></path>
                </g>
            </g>
        </g>
    </g>
</svg>