<svg width="107" height="185" viewBox="0 0 107 185" xmlns="http://www.w3.org/2000/svg">
    <path d="M.374 184.535h56.7c15.6 0 27.78-5.024 36.54-15.071 8.76-10.048 13.14-24.131 13.14-42.25 0-8.071-1.05-15.69-3.15-22.854-2.1-7.166-6.09-13.548-11.97-19.149 3.36-4.447 5.79-9.306 7.29-14.577 1.5-5.271 2.25-10.707 2.25-16.307 0-16.966-3.87-30.184-11.61-39.655C81.824 5.2 70.994.465 57.074.465H.374v184.07zm27.9-114.89v-37.06h30.78c4.32 0 7.77 1.688 10.35 5.065 2.58 3.376 3.87 7.865 3.87 13.465s-1.29 10.089-3.87 13.466c-2.58 3.376-6.03 5.065-10.35 5.065h-30.78zm0 81.535V103h32.04c5.64 0 10.14 2.224 13.5 6.672 3.36 4.447 5.04 10.294 5.04 17.542 0 7.083-1.68 12.848-5.04 17.295-3.36 4.447-7.86 6.671-13.5 6.671h-32.04z" fill="#FFF" fill-rule="nonzero"/>
</svg>
