<svg width="143" height="191" viewBox="0 0 143 191" xmlns="http://www.w3.org/2000/svg">
    <path d="M71.397 190.5c10.08 0 19.44-2.388 28.08-7.165 8.64-4.777 16.17-11.49 22.59-20.137 6.42-8.647 11.43-18.736 15.03-30.266 3.6-11.53 5.4-24.049 5.4-37.556 0-13.506-1.77-26.025-5.31-37.555-3.54-11.53-8.52-21.578-14.94-30.143-6.42-8.565-13.95-15.236-22.59-20.013C91.017 2.888 81.597.5 71.397.5c-10.2 0-19.62 2.388-28.26 7.165s-16.17 11.448-22.59 20.013c-6.42 8.565-11.4 18.613-14.94 30.143C2.067 69.351.297 81.87.297 95.376c0 13.507 1.8 26.026 5.4 37.556 3.6 11.53 8.61 21.619 15.03 30.266 6.42 8.648 13.95 15.36 22.59 20.137 8.64 4.777 18 7.165 28.08 7.165zm0-34.59c-8.16 0-15.51-2.595-22.05-7.783-6.54-5.189-11.7-12.313-15.48-21.372-3.78-9.06-5.67-19.519-5.67-31.379 0-11.86 1.89-22.319 5.67-31.378 3.78-9.06 8.94-16.142 15.48-21.248 6.54-5.107 13.89-7.66 22.05-7.66s15.51 2.553 22.05 7.66c6.54 5.106 11.7 12.189 15.48 21.248 3.78 9.06 5.67 19.519 5.67 31.378 0 11.86-1.89 22.32-5.67 31.379-3.78 9.06-8.94 16.183-15.48 21.372-6.54 5.188-13.89 7.783-22.05 7.783z" fill="#ffffff80" fill-rule="nonzero"/>
</svg>
