<svg width="104" height="191" viewBox="0 0 104 191" xmlns="http://www.w3.org/2000/svg">
    <path d="M55.206 190.5c9.48 0 17.79-2.347 24.93-7.042 7.14-4.694 12.75-11.2 16.83-19.518 4.08-8.319 6.12-17.831 6.12-28.538 0-24.707-10.74-41.837-32.22-51.39l-25.74-11.366c-8.16-3.789-12.24-10.048-12.24-18.778 0-5.93 1.74-10.748 5.22-14.454 3.48-3.706 8.04-5.559 13.68-5.559 6.48 0 12.24 2.43 17.28 7.289 5.04 4.859 8.82 11.571 11.34 20.136l22.68-14.083c-3.72-14.495-10.17-25.902-19.35-34.22C74.556 4.66 63.906.5 51.786.5c-9.12 0-17.19 2.306-24.21 6.918s-12.48 11.036-16.38 19.272c-3.9 8.236-5.85 17.79-5.85 28.66 0 25.037 10.74 42.415 32.22 52.133l26.28 11.86c7.92 3.623 11.88 9.718 11.88 18.283 0 5.93-1.71 10.666-5.13 14.207-3.42 3.541-7.95 5.312-13.59 5.312-7.2 0-13.77-2.883-19.71-8.648-5.94-5.765-10.59-13.671-13.95-23.719L.486 138.862c2.64 10.541 6.63 19.683 11.97 27.425 5.34 7.741 11.7 13.712 19.08 17.913 7.38 4.2 15.27 6.3 23.67 6.3z" fill="#FFF" fill-rule="nonzero"/>
</svg>
